<svg xmlns="http://www.w3.org/2000/svg" width="1024" height="1024" viewBox="0 0 24 24">
  <defs>
    <linearGradient id="purpleGrad" x1="0%" y1="0%" x2="0%" y2="100%">
      <stop offset="0%" stop-color="#9B5DE5" stop-opacity="1" />
      <stop offset="100%" stop-color="#55286F" stop-opacity="1" />
    </linearGradient>
  </defs>
  <rect x="0" y="0" width="24" height="24" fill="url(#purpleGrad)" />
  <!-- Chef hat scaled to 81% and moved left and up -->
  <g transform="translate(11.04, 11.52) scale(0.81) translate(-12, -12)">
    <!-- Glitched RGB effect with 2 colors - VERY PROMINENT -->
    <path fill="#FF0000" opacity="0.95" transform="translate(-0.875, -0.35)" d="M12.5,1.5C10.73,1.5 9.17,2.67 8.67,4.37C8.14,4.13 7.58,4 7,4A4,4 0 0,0 3,8C3,9.82 4.24,11.41 6,11.87V19H19V11.87C20.76,11.41 22,9.82 22,8A4,4 0 0,0 18,4C17.42,4 16.86,4.13 16.33,4.37C15.83,2.67 14.27,1.5 12.5,1.5M12,10.5H13V17.5H12V10.5M9,12.5H10V17.5H9V12.5M15,12.5H16V17.5H15V12.5M6,20V21A1,1 0 0,0 7,22H18A1,1 0 0,0 19,21V20H6Z"/>
    <path fill="#00FFFF" opacity="0.95" transform="translate(0.875, 0.35)" d="M12.5,1.5C10.73,1.5 9.17,2.67 8.67,4.37C8.14,4.13 7.58,4 7,4A4,4 0 0,0 3,8C3,9.82 4.24,11.41 6,11.87V19H19V11.87C20.76,11.41 22,9.82 22,8A4,4 0 0,0 18,4C17.42,4 16.86,4.13 16.33,4.37C15.83,2.67 14.27,1.5 12.5,1.5M12,10.5H13V17.5H12V10.5M9,12.5H10V17.5H9V12.5M15,12.5H16V17.5H15V12.5M6,20V21A1,1 0 0,0 7,22H18A1,1 0 0,0 19,21V20H6Z"/>
    <!-- Main white chef's hat -->
    <path fill="#FFFFFF" d="M12.5,1.5C10.73,1.5 9.17,2.67 8.67,4.37C8.14,4.13 7.58,4 7,4A4,4 0 0,0 3,8C3,9.82 4.24,11.41 6,11.87V19H19V11.87C20.76,11.41 22,9.82 22,8A4,4 0 0,0 18,4C17.42,4 16.86,4.13 16.33,4.37C15.83,2.67 14.27,1.5 12.5,1.5M12,10.5H13V17.5H12V10.5M9,12.5H10V17.5H9V12.5M15,12.5H16V17.5H15V12.5M6,20V21A1,1 0 0,0 7,22H18A1,1 0 0,0 19,21V20H6Z"/>
  </g>
</svg>