<svg xmlns="http://www.w3.org/2000/svg" width="1024" height="1024" viewBox="0 0 24 24">
  <defs>
    <linearGradient id="purpleGrad" x1="0%" y1="0%" x2="0%" y2="100%">
      <stop offset="0%" stop-color="#9B5DE5" stop-opacity="1" />
      <stop offset="100%" stop-color="#55286F" stop-opacity="1" />
    </linearGradient>
  </defs>
  <rect x="0" y="0" width="24" height="24" fill="url(#purpleGrad)" />
  <!-- Glitched RGB effect with 2 colors - MORE PROMINENT -->
  <g fill="#FF0000" opacity="0.9" transform="translate(-0.5, -0.2)">
    <!-- Chef hat body -->
    <path d="M12.5,1.5C10.73,1.5 9.17,2.67 8.67,4.37C8.14,4.13 7.58,4 7,4A4,4 0 0,0 3,8C3,9.82 4.24,11.41 6,11.87V19H19V11.87C20.76,11.41 22,9.82 22,8A4,4 0 0,0 18,4C17.42,4 16.86,4.13 16.33,4.37C15.83,2.67 14.27,1.5 12.5,1.5Z"/>
    <!-- Left eye -->
    <rect x="9" y="12.5" width="1" height="5"/>
    <!-- Right eye -->
    <rect x="15" y="12.5" width="1" height="5"/>
    <!-- Smile -->
    <path d="M8,19 Q12,21 16,19" stroke="#FF0000" stroke-width="1" fill="none"/>
  </g>
  <g fill="#00FFFF" opacity="0.9" transform="translate(0.5, 0.2)">
    <!-- Chef hat body -->
    <path d="M12.5,1.5C10.73,1.5 9.17,2.67 8.67,4.37C8.14,4.13 7.58,4 7,4A4,4 0 0,0 3,8C3,9.82 4.24,11.41 6,11.87V19H19V11.87C20.76,11.41 22,9.82 22,8A4,4 0 0,0 18,4C17.42,4 16.86,4.13 16.33,4.37C15.83,2.67 14.27,1.5 12.5,1.5Z"/>
    <!-- Left eye -->
    <rect x="9" y="12.5" width="1" height="5"/>
    <!-- Right eye -->
    <rect x="15" y="12.5" width="1" height="5"/>
    <!-- Smile -->
    <path d="M8,19 Q12,21 16,19" stroke="#00FFFF" stroke-width="1" fill="none"/>
  </g>
  <!-- Main white chef's hat -->
  <g fill="#FFFFFF">
    <!-- Chef hat body -->
    <path d="M12.5,1.5C10.73,1.5 9.17,2.67 8.67,4.37C8.14,4.13 7.58,4 7,4A4,4 0 0,0 3,8C3,9.82 4.24,11.41 6,11.87V19H19V11.87C20.76,11.41 22,9.82 22,8A4,4 0 0,0 18,4C17.42,4 16.86,4.13 16.33,4.37C15.83,2.67 14.27,1.5 12.5,1.5Z"/>
    <!-- Left eye -->
    <rect x="9" y="12.5" width="1" height="5"/>
    <!-- Right eye -->
    <rect x="15" y="12.5" width="1" height="5"/>
    <!-- Smile -->
    <path d="M8,19 Q12,21 16,19" stroke="#FFFFFF" stroke-width="1" fill="none"/>
  </g>
</svg>